<svg id="Capa_2" data-name="Capa 2" xmlns="http://www.w3.org/2000/svg" viewBox="0 0 771.2 106.77">
  <defs>
    <style>
      .cls-1 {
        fill: #fff;
      }

      .cls-2 {
        fill: #fed401;
      }
    </style>
  </defs>
  <g id="Capa_1-2" data-name="Capa 1">
    <g id="Up">
      <path class="cls-1" d="m133.89,106.77h-22.02l-11.14-21.76H33.15l-11.14,21.76H0L56.83,0h20.23l56.83,106.77ZM66.95,21.29l-23.55,43.67h46.98l-23.43-43.67Z"/>
      <rect class="cls-2" x="228.06" y="86.25" width="20.52" height="20.52"/>
      <path class="cls-1" d="m167.55,86.25h50.25v20.52h-82.25v-20.52l74.12-61.26,6.14-4.47h-80.13V0h112.13v20.52l-74.12,61.26-6.14,4.47Z"/>
      <path class="cls-1" d="m257.79,106.77V0h20.35v106.77h-20.35Z"/>
      <path class="cls-1" d="m395.39,0v21.14h-83.72v22.07h75.78v20.68h-75.78v21.6h83.72v21.29h-103.56V0h103.56Z"/>
      <path class="cls-1" d="m503.94,0h20.22v106.77h-19.07l-79.62-73.75v73.75h-20.1V0h18.94l79.62,73.6V0Z"/>
      <path class="cls-1" d="m610.94,0c30.85,0,48.26,19.75,48.26,53.39v.15c0,33.48-17.41,53.23-48.26,53.23h-73.22V0h73.22Zm-52.87,84.55h52.87c19.07,0,28.29-11.42,28.29-31.01v-.15c0-19.75-9.22-31.32-28.29-31.32h-52.87v62.49Z"/>
      <path class="cls-1" d="m771.2,0v21.14h-83.72v22.07h75.78v20.68h-75.78v21.6h83.72v21.29h-103.56V0h103.56Z"/>
    </g>
  </g>
</svg>